<svg xmlns="http://www.w3.org/2000/svg" width="181" height="36" fill="none">
  <rect width="181" height="36" rx="6" fill="#FF3621"/>
  <g transform="translate(12, 8) scale(0.177)">
    <path d="M98.9 46.5996L52.3 72.8996L2.4 44.7996L0 46.0996V66.4996L52.3 95.8996L98.9 69.6996V80.4996L52.3 106.8L2.4 78.6996L0 79.9996V83.4996L52.3 112.9L104.5 83.4996V63.0996L102.1 61.7996L52.3 89.7996L5.6 63.5996V52.7996L52.3 78.9996L104.5 49.5996V29.4996L101.9 27.9996L52.3 55.8996L8 31.0996L52.3 6.19961L88.7 26.6996L91.9 24.8996V22.3996L52.3 0.0996094L0 29.4996V32.6996L52.3 62.0996L98.9 35.7996V46.5996Z" fill="white"/>
  </g>
  <path transform="translate(38.500,23.297) scale(0.006348,-0.006348)" d="M654 0H150V1490H664Q886 1490 1045.5 1400.5Q1205 1311 1290.0 1144.5Q1375 978 1375 747Q1375 514 1289.5 346.5Q1204 179 1042.5 89.5Q881 0 654 0ZM417 231H641Q1112 231 1112 747Q1112 1259 648 1259H417Z" fill="white"/><path transform="translate(47.888,23.297) scale(0.006348,-0.006348)" d="M632 -23Q463 -23 341.5 48.0Q220 119 154.5 248.0Q89 377 89 552Q89 724 153.5 854.5Q218 985 336.5 1058.5Q455 1132 615 1132Q751 1132 867.5 1072.5Q984 1013 1055.0 888.5Q1126 764 1126 568V486H348Q353 337 431.5 259.0Q510 181 635 181Q721 181 782.5 218.0Q844 255 870 326L1109 277Q1069 142 943.5 59.5Q818 -23 632 -23ZM349 663H873Q861 783 796.5 855.5Q732 928 616 928Q497 928 427.5 851.5Q358 775 349 663Z" fill="white"/><path transform="translate(55.575,23.297) scale(0.006348,-0.006348)" d="M138 -418V1118H392V933H409Q428 972 465.0 1018.5Q502 1065 566.0 1098.5Q630 1132 729 1132Q858 1132 962.5 1066.0Q1067 1000 1128.5 871.5Q1190 743 1190 557Q1190 373 1129.5 244.0Q1069 115 965.0 47.5Q861 -20 728 -20Q632 -20 568.5 12.5Q505 45 467.0 91.0Q429 137 409 177H398V-418ZM658 194Q788 194 855.5 297.5Q923 401 923 558Q923 714 856.5 816.0Q790 918 658 918Q529 918 461.0 819.5Q393 721 393 558Q393 395 462.0 294.5Q531 194 658 194Z" fill="white"/><path transform="translate(63.688,23.297) scale(0.006348,-0.006348)" d="M398 1490V0H138V1490Z" fill="white"/><path transform="translate(67.090,23.297) scale(0.006348,-0.006348)" d="M623 -23Q460 -23 340.0 49.5Q220 122 154.5 251.5Q89 381 89 553Q89 727 154.5 857.5Q220 988 340.0 1060.0Q460 1132 623 1132Q786 1132 906.0 1060.0Q1026 988 1092.0 857.5Q1158 727 1158 553Q1158 381 1092.0 251.5Q1026 122 906.0 49.5Q786 -23 623 -23ZM623 188Q714 188 774.0 237.0Q834 286 864.0 369.0Q894 452 894 554Q894 657 864.0 740.0Q834 823 774.0 872.0Q714 921 623 921Q533 921 473.0 872.0Q413 823 383.5 740.0Q354 657 354 554Q354 452 383.5 369.0Q413 286 473.0 237.0Q533 188 623 188Z" fill="white"/><path transform="translate(75.005,23.297) scale(0.006348,-0.006348)" d="M127 -399 188 -196 219 -204Q307 -228 366.0 -199.5Q425 -171 445 -75L461 -4L39 1118H317L521 510Q545 437 563.0 364.5Q581 292 597 219Q616 293 635.5 365.5Q655 438 680 510L891 1118H1166L686 -144Q635 -278 544.0 -352.0Q453 -426 301 -426Q246 -426 199.5 -418.0Q153 -410 127 -399Z" fill="white"/><path transform="translate(85.930,23.297) scale(0.006348,-0.006348)" d="M655 1118V914H439V315Q439 254 464.5 225.5Q490 197 550 197Q568 197 597.0 201.5Q626 206 645 210L686 9Q643 -4 598.0 -9.5Q553 -15 512 -15Q351 -15 265.0 65.0Q179 145 179 293V914H20V1118H179V1384H439V1118Z" fill="white"/><path transform="translate(90.519,23.297) scale(0.006348,-0.006348)" d="M623 -23Q460 -23 340.0 49.5Q220 122 154.5 251.5Q89 381 89 553Q89 727 154.5 857.5Q220 988 340.0 1060.0Q460 1132 623 1132Q786 1132 906.0 1060.0Q1026 988 1092.0 857.5Q1158 727 1158 553Q1158 381 1092.0 251.5Q1026 122 906.0 49.5Q786 -23 623 -23ZM623 188Q714 188 774.0 237.0Q834 286 864.0 369.0Q894 452 894 554Q894 657 864.0 740.0Q834 823 774.0 872.0Q714 921 623 921Q533 921 473.0 872.0Q413 823 383.5 740.0Q354 657 354 554Q354 452 383.5 369.0Q413 286 473.0 237.0Q533 188 623 188Z" fill="white"/><path transform="translate(101.710,23.297) scale(0.006348,-0.006348)" d="M654 0H150V1490H664Q886 1490 1045.5 1400.5Q1205 1311 1290.0 1144.5Q1375 978 1375 747Q1375 514 1289.5 346.5Q1204 179 1042.5 89.5Q881 0 654 0ZM417 231H641Q1112 231 1112 747Q1112 1259 648 1259H417Z" fill="white"/><path transform="translate(111.098,23.297) scale(0.006348,-0.006348)" d="M450 -23Q344 -23 259.0 15.5Q174 54 125.0 129.0Q76 204 76 314Q76 440 137.5 509.5Q199 579 296.5 610.5Q394 642 502 653Q648 669 713.0 682.5Q778 696 778 754V759Q778 841 728.0 886.5Q678 932 583 932Q485 932 427.0 889.0Q369 846 349 791L108 840Q157 988 285.5 1060.0Q414 1132 582 1132Q661 1132 741.5 1113.5Q822 1095 889.0 1051.5Q956 1008 997.0 933.5Q1038 859 1038 747V0H789V154H779Q742 82 661.0 29.5Q580 -23 450 -23ZM517 170Q637 170 708.5 239.0Q780 308 780 401V533Q762 519 716.0 508.5Q670 498 618.5 490.5Q567 483 533 478Q445 466 386.5 430.0Q328 394 328 317Q328 245 381.0 207.5Q434 170 517 170Z" fill="white"/><path transform="translate(118.563,23.297) scale(0.006348,-0.006348)" d="M655 1118V914H439V315Q439 254 464.5 225.5Q490 197 550 197Q568 197 597.0 201.5Q626 206 645 210L686 9Q643 -4 598.0 -9.5Q553 -15 512 -15Q351 -15 265.0 65.0Q179 145 179 293V914H20V1118H179V1384H439V1118Z" fill="white"/><path transform="translate(123.152,23.297) scale(0.006348,-0.006348)" d="M450 -23Q344 -23 259.0 15.5Q174 54 125.0 129.0Q76 204 76 314Q76 440 137.5 509.5Q199 579 296.5 610.5Q394 642 502 653Q648 669 713.0 682.5Q778 696 778 754V759Q778 841 728.0 886.5Q678 932 583 932Q485 932 427.0 889.0Q369 846 349 791L108 840Q157 988 285.5 1060.0Q414 1132 582 1132Q661 1132 741.5 1113.5Q822 1095 889.0 1051.5Q956 1008 997.0 933.5Q1038 859 1038 747V0H789V154H779Q742 82 661.0 29.5Q580 -23 450 -23ZM517 170Q637 170 708.5 239.0Q780 308 780 401V533Q762 519 716.0 508.5Q670 498 618.5 490.5Q567 483 533 478Q445 466 386.5 430.0Q328 394 328 317Q328 245 381.0 207.5Q434 170 517 170Z" fill="white"/><path transform="translate(130.617,23.297) scale(0.006348,-0.006348)" d="M728 -20Q632 -20 568.5 12.5Q505 45 467.0 91.0Q429 137 409 177H392V0H138V1490H398V933H409Q428 972 465.0 1018.5Q502 1065 566.0 1098.5Q630 1132 729 1132Q858 1132 962.5 1066.0Q1067 1000 1128.5 871.5Q1190 743 1190 557Q1190 373 1129.5 244.0Q1069 115 965.0 47.5Q861 -20 728 -20ZM658 194Q788 194 855.5 297.5Q923 401 923 558Q923 714 856.5 816.0Q790 918 658 918Q529 918 461.0 819.5Q393 721 393 558Q393 395 462.0 294.5Q531 194 658 194Z" fill="white"/><path transform="translate(138.729,23.297) scale(0.006348,-0.006348)" d="M138 0V1118H390V931H402Q432 1028 507.0 1080.5Q582 1133 678 1133Q728 1133 773 1126V887Q757 891 721.0 895.5Q685 900 650 900Q541 900 469.5 832.5Q398 765 398 658V0Z" fill="white"/><path transform="translate(143.890,23.297) scale(0.006348,-0.006348)" d="M138 0V1118H398V0ZM268 1276Q206 1276 161.5 1317.5Q117 1359 117 1419Q117 1478 161.5 1519.5Q206 1561 268 1561Q331 1561 375.5 1519.5Q420 1478 420 1419Q420 1359 375.5 1317.5Q331 1276 268 1276Z" fill="white"/><path transform="translate(147.292,23.297) scale(0.006348,-0.006348)" d="M623 -23Q460 -23 340.0 49.5Q220 122 154.5 251.5Q89 381 89 553Q89 727 154.5 857.5Q220 988 340.0 1060.0Q460 1132 623 1132Q810 1132 939.5 1038.5Q1069 945 1105 781L862 730Q841 817 780.0 869.0Q719 921 625 921Q489 921 421.5 816.0Q354 711 354 554Q354 451 384.0 368.0Q414 285 474.0 236.5Q534 188 625 188Q721 188 782.5 242.5Q844 297 865 387L1108 336Q1072 169 942.0 73.0Q812 -23 623 -23Z" fill="white"/><path transform="translate(154.865,23.297) scale(0.006348,-0.006348)" d="M138 0V1490H398V667H417L820 1118H1125L692 635L1151 0H839L494 479L398 376V0Z" fill="white"/><path transform="translate(162.267,23.297) scale(0.006348,-0.006348)" d="M561 -23Q368 -23 242.5 59.5Q117 142 88 294L331 340Q375 176 566 176Q662 176 718.5 214.5Q775 253 775 310Q775 405 624 438L433 479Q119 547 119 792Q119 896 176.0 972.0Q233 1048 334.5 1090.0Q436 1132 570 1132Q760 1132 870.5 1053.0Q981 974 1015 844L783 798Q763 856 713.0 897.0Q663 938 573 938Q491 938 435.0 901.5Q379 865 379 808Q379 759 415.5 727.5Q452 696 538 677L728 637Q1041 570 1041 335Q1041 229 980.0 148.5Q919 68 810.5 22.5Q702 -23 561 -23Z" fill="white"/>
</svg>